<?xml version="1.0" encoding="UTF-8" standalone="no"?>
<!-- Created with Inkscape (http://www.inkscape.org/) -->

<svg
   width="139.84389"
   height="53.21434"
   viewBox="0 0 37.000361 14.079628"
   version="1.1"
   id="svg1"
   xmlns:inkscape="http://www.inkscape.org/namespaces/inkscape"
   xmlns:sodipodi="http://sodipodi.sourceforge.net/DTD/sodipodi-0.dtd"
   xmlns="http://www.w3.org/2000/svg"
   xmlns:svg="http://www.w3.org/2000/svg">
  <sodipodi:namedview
     id="namedview1"
     pagecolor="#ffffff"
     bordercolor="#000000"
     borderopacity="0.25"
     inkscape:showpageshadow="2"
     inkscape:pageopacity="0.0"
     inkscape:pagecheckerboard="0"
     inkscape:deskcolor="#d1d1d1"
     inkscape:document-units="mm" />
  <defs
     id="defs1">
    <clipPath
       clipPathUnits="userSpaceOnUse"
       id="clipPath237">
      <path
         d="M 0,841.89 H 595.28 V 0 H 0 Z"
         transform="translate(-344.38653,-719.13012)"
         id="path237" />
    </clipPath>
  </defs>
  <g
     inkscape:label="Capa 1"
     inkscape:groupmode="layer"
     id="layer1"
     transform="translate(-0.02065155,-0.10393612)">
    <path
       id="path236"
       clip-path="url(#clipPath237)"
       style="fill:#49d99c icc-color(sRGB-IEC61966-2, 0.1, 0.28599548, 0.85099792, 0.61199951);fill-opacity:1;fill-rule:nonzero;stroke:none"
       d="m -10.979535,10.152293 c -0.057,-0.3419996 -0.04256,-3.464012 0.02344,-3.6870118 h 1.4926763 V -16.783255 c -0.01,-0.001 -0.020297,-0.0019 -0.029297,-0.0029 -0.031,0.238 -0.06075,0.476817 -0.09375,0.736817 -1.7859983,-0.162 -3.5434123,-0.299329 -5.2954103,-0.486329 -1.795998,-0.190999 -5.040594,-0.481269 -5.308594,-0.426269 -0.404,3.707996 -0.808356,7.4233948 -1.214356,11.1503911 2.709998,0.7709992 5.387336,1.5352001 8.090333,2.3041993 -0.34,1.1969988 -0.671278,2.3622475 -1.009278,3.55224632 -2.506997,-0.7019993 -4.978748,-1.42109452 -7.489746,-2.12109382 -0.207,1.89999806 -0.40877,3.7566506 -0.61377,5.6396487 3.509997,0.997999 6.999794,1.9902824 10.50879,2.9882814 -0.34,1.1969988 -0.671743,2.363642 -1.010742,3.556641 -4.904995,-1.3949988 -9.783459,-2.7812713 -14.689454,-4.17627 0.34,-1.1969988 0.673348,-2.3699935 1.006348,-3.5419923 0.154999,0.029 0.274156,0.051637 0.410156,0.077637 0.007,-0.1279999 0.01358,-0.2276603 0.01758,-0.3266602 0.021,-0.5449994 0.03952,-1.0897662 0.06152,-1.63476568 0.084,-2.07099792 0.169954,-4.14140472 0.251954,-6.21240262 0.046,-1.1539989 0.08437,-2.3074271 0.130371,-3.461426 0.081,-2.0429982 0.168023,-4.0859092 0.249023,-6.1289072 0.047,-1.180998 0.08684,-2.362458 0.131836,-3.543457 0.006,-0.159 0.02941,-0.318398 0.04541,-0.483398 0.257,0.02 0.48552,0.01759 0.70752,0.05859 0.405999,0.074 0.752012,-0.0365 1.062012,-0.291503 0.125999,-0.103 0.250297,-0.106524 0.404297,-0.06152 0.409999,0.118 0.826258,0.220196 1.239257,0.325195 0.08,0.021 0.1617,0.03187 0.2417,0.04687 l 0.01758,-0.05127 c -0.614,-0.382 -1.228099,-0.763903 -1.850098,-1.149903 -0.12,0.097 -0.219985,0.190208 -0.333984,0.262208 -0.06,0.038 -0.153797,0.06927 -0.216797,0.05127 -0.206,-0.059 -0.404305,-0.142262 -0.612305,-0.218262 0.283,-0.200999 0.09995,-0.523719 0.251953,-0.761718 0.820999,0.073 1.651911,0.143726 2.48291,0.219726 0.832,0.076 1.664095,0.157375 2.496094,0.234375 0.823999,0.077 1.646728,0.153516 2.469727,0.228516 0.832999,0.076 1.666024,0.150586 2.499024,0.225586 0.832999,0.075 1.664559,0.152586 2.497558,0.225586 0.826999,0.073 1.653603,0.167261 2.5166018,0.218261 v -5.436035 c 0.092,-0.006 0.1533322,-0.01465 0.2153321,-0.01465 0.7999992,-0.001 1.599415,-0.0045 2.3994142,0.0015 0.2449997,0.002 0.4903518,0.02388 0.7353516,0.04687 0.2279997,0.021 0.2567695,0.06443 0.2387695,0.294434 -0.062,0.796999 -0.1270352,1.593626 -0.1860351,2.390625 -0.05,0.670999 -0.096695,1.343161 -0.1376954,2.01416 -0.037,0.597 -0.064215,1.194505 -0.095215,1.791504 0.018,0.003 0.036199,0.0053 0.054199,0.0073 0.3859996,-1.950998 0.7357465,-3.90894 1.1147462,-5.835938 h 1.0532227 c -0.3399997,6.462993 -0.6790668,12.893339 -1.0180665,19.3403331 0.8009992,0.2109998 1.5697236,0.4140236 2.3657228,0.6240234 1.6759983,-7.0199935 3.34369722,-14.0085435 5.0126955,-20.9985365 0.022,-0.007 0.042453,-0.01497 0.064453,-0.02197 0.082,0.096 0.1550235,0.202645 0.2490234,0.285645 0.1559999,0.137 0.1992188,0.298906 0.1992188,0.503906 0,0.881999 0.016297,1.764509 0.029297,2.645508 10e-4,0.071 0.015902,0.141403 0.024902,0.212402 0.016,-0.002 0.03234,-0.0034 0.04834,-0.0044 0.2389997,-0.735999 0.4774924,-1.471001 0.7294922,-2.25 0.4189996,0.448999 0.8011996,0.857231 1.1791993,1.26123 -0.026,0.068 -0.039059,0.110879 -0.060059,0.150879 -0.1919998,0.369 -0.3135313,0.75027 -0.2695313,1.17627 0.01,0.097 -0.04568,0.210758 -0.09668,0.301758 -0.1919998,0.339999 -0.3967268,0.673742 -0.5947266,1.010742 -0.044,0.074 -0.08109,0.152996 -0.1420898,0.270996 0.066,-0.033 0.091469,-0.03773 0.1054687,-0.05273 0.3889996,-0.433 0.7791567,-0.865177 1.1601563,-1.305176 0.052,-0.06 0.089242,-0.171629 0.073242,-0.244629 -0.075,-0.331 0.1112659,-0.5442 0.3222657,-0.804199 0.077,0.093 0.1300782,0.182629 0.2050781,0.244629 0.1709998,0.140999 0.1824413,0.295371 0.1274414,0.505371 -1.5609984,5.918994 -3.1149237,11.8383076 -4.66992211,17.7583017 -0.024,0.094 -0.0418477,0.1906173 -0.0688477,0.3076172 0.89499911,0.2379997 1.76722761,0.4690549 2.65722671,0.7060547 -0.2119998,0.8139992 -0.4154885,1.601204 -0.6254883,2.40820324 0.2759997,0.031 0.5144378,0.0588906 0.7734376,0.0878906 C 3.6468915,0.77160001 3.5558679,1.9026181 3.482868,3.034617 3.4078681,4.1726158 3.3060281,5.3083253 3.2470282,6.4843242 H 4.243122 c 0.061,0.4369995 0.039492,3.4869691 -0.020508,3.6679688 z M -30.437056,9.8388165 c -0.848499,-0.00338 -1.681179,-0.021769 -1.784179,-0.05127 -0.006,-0.048 -0.01558,-0.1012735 -0.01758,-0.1552735 -0.077,-2.0799979 -0.153446,-4.1602367 -0.231446,-6.2402346 -0.04,-1.089999 -0.08058,-2.1795325 -0.121582,-3.26953146 -0.088,-2.29799774 -0.175207,-4.59555734 -0.262207,-6.89355504 -0.04,-1.043999 -0.07912,-2.089302 -0.120117,-3.1333009 -0.006,-0.142 -0.02509,-0.28427 -0.03809,-0.42627 l -0.0542,-0.0015 c -1.072999,5.4079952 -2.146193,10.81487009 -3.221192,16.2348647 -0.426999,-0.08 -0.816356,-0.1535157 -1.214355,-0.2285157 -0.028,0.1099999 -0.05031,0.1929962 -0.07031,0.2709961 h -3.663574 V 5.5790507 -12.066458 c 0,-0.091 0.0035,-0.182461 -0.0015,-0.272461 -0.003,-0.053 -0.01976,-0.104738 -0.03076,-0.156738 l -0.03809,0.0059 c -1.319998,6.6579935 -2.641333,13.3151953 -3.965332,19.9921886 -1.216999,-0.2419997 -2.400025,-0.4762385 -3.624024,-0.7192383 1.402999,-8.8929911 2.801244,-17.7533613 4.198243,-26.6103533 0.073,-0.016 0.115668,-0.03016 0.159668,-0.03516 1.084999,-0.108 2.167884,-0.227406 3.254883,-0.316406 0.505999,-0.042 1.015903,-0.02269 1.524902,-0.03369 0.148,-0.004 0.255492,0.05706 0.354492,0.164063 0.328,0.353 0.669235,0.694223 0.990235,1.053223 0.125,0.139 0.254664,0.185808 0.430664,0.153808 0.132,-0.023 0.266918,-0.0332 0.440918,-0.0542 v 11.743653 c 0.025,0.002 0.04971,0.00532 0.07471,0.00732 0.793999,-4.001996 1.587696,-8.00509 2.387695,-12.038086 0.73,-0.063 1.44804,-0.124036 2.16504,-0.186035 0.004,-0.018 0.0063,-0.0372 0.01025,-0.0542 -0.655999,-0.241999 -1.312399,-0.483957 -1.983398,-0.730957 l 0.470215,-2.351074 c 0.940999,0.132 1.815837,0.423172 2.756836,0.451172 -0.048,0.421999 0.09525,0.769887 0.28125,1.108887 0.041,0.073 0.04602,0.175207 0.04101,0.262207 -0.025,0.398999 -0.05989,0.798777 -0.08789,1.196777 -0.007,0.098 -0.0015,0.194969 -0.0015,0.292969 0.063,-0.067 0.0894,-0.131684 0.108398,-0.200684 0.131,-0.471999 0.250579,-0.948969 0.392579,-1.417969 0.056,-0.182999 0.04608,-0.328398 -0.06592,-0.483398 -0.055,-0.075 -0.09915,-0.179996 -0.09814,-0.270996 0.003,-0.16 0.04338,-0.31968 0.06738,-0.47168 0.285,-0.058 2.244332,-0.04921 2.465332,0.0088 V 9.8021954 c -0.166,0.028 -1.030895,0.039996 -1.879395,0.036621 z M -69.65239,6.6190898 c -4.892995,-1.3909986 -9.764951,-2.7754118 -14.668946,-4.1704104 0.123,-1.60399836 0.244676,-3.19322448 0.367676,-4.8032229 0.66,0.1169999 1.281989,0.2272385 1.937989,0.3442383 0.828999,-9.0759908 1.654911,-18.1164678 2.48291,-27.1684588 1.060999,-0.102999 2.084048,-0.233547 3.123047,-0.310546 0.055,0.243999 0.09634,0.457504 0.152344,0.666503 0.084,0.317 0.07003,0.60568 -0.188965,0.84668 -0.116,0.108 -0.128891,0.237973 -0.08789,0.396973 0.117,0.447999 0.213801,0.901051 0.320801,1.352051 0.016,0.063 0.04245,0.12257 0.06445,0.18457 h 0.05127 c 0.224999,-1.181999 0.450687,-2.363966 0.679687,-3.563965 0.282,-0.028 0.566485,-0.05782 0.896485,-0.09082 -0.914,6.899993 -1.820935,13.764515 -2.731934,20.6455086 0.585999,0.1659998 1.139317,0.3226095 1.674316,0.4746094 0.035,-0.03 0.04381,-0.034016 0.04981,-0.041016 0.006,-0.007 0.0092,-0.014437 0.01318,-0.023437 0.007,-0.016 0.01204,-0.034269 0.01904,-0.05127 0.003,-0.008 0.0068,-0.016902 0.0088,-0.024902 1.966998,-6.615993 3.932928,-13.231176 5.898926,-19.847169 0.008,-0.026 0.0169,-0.05164 0.0249,-0.07764 0.003,-0.008 0.0033,-0.01837 0.0073,-0.02637 0.007,-0.016 0.0149,-0.03188 0.0249,-0.04687 0.005,-0.007 0.01251,-0.01558 0.02051,-0.01758 0.008,-0.003 0.01799,0.0023 0.06299,0.01025 -0.092,1.566998 -0.214786,3.137939 -0.279785,4.710938 0.019,0.002 0.03666,0.0053 0.05566,0.0073 0.267999,-1.401999 0.534523,-2.804443 0.811523,-4.252442 1.147999,0.961999 2.255072,1.88822 3.372071,2.824219 -1.730999,6.099994 -3.45369,12.16696 -5.179688,18.2519541 0.899999,0.2569998 1.762044,0.5043245 2.644043,0.7573243 -0.026,0.1099999 -0.04338,0.1977149 -0.06738,0.2827149 -0.174,0.6209993 -0.349949,1.2408171 -0.522949,1.8618165 -0.023,0.082 -0.0352,0.1677422 -0.0542,0.2607422 0.262999,0.032 0.49493,0.061285 0.752929,0.092285 -0.238999,2.6289974 -0.476773,5.2320734 -0.717773,7.8720707 -0.245,-0.088 -0.255899,0.079192 -0.295899,0.2211914 -0.212999,0.7509993 -0.427066,1.5019306 -0.643066,2.2529298 -0.019,0.066 -0.0511,0.1282189 -0.0791,0.1992188 z m 4.538087,-0.011719 c -0.041,0.005 -0.08488,-0.00479 -0.150879,-0.00879 0.024,-0.2589998 0.04631,-0.4981839 0.07031,-0.7631836 -0.374999,-0.04 -0.729563,-0.078188 -1.101562,-0.1171876 0.03,-0.3559996 0.0545,-0.681348 0.0835,-1.0063477 0.102,-1.1119988 0.205617,-2.2253801 0.307617,-3.338379 0.08,-0.87799916 0.15877,-1.75532526 0.238769,-2.6323244 0.102,-1.1129989 0.205153,-2.2253802 0.306153,-3.3383791 0.081,-0.8769991 0.158769,-1.75579 0.238769,-2.6337892 0.102,-1.1129988 0.205618,-2.2253801 0.307618,-3.3383792 0.08,-0.877999 0.156304,-1.75579 0.237304,-2.633789 0.101,-1.112999 0.206082,-2.223915 0.309082,-3.336914 0.066,-0.714999 0.132754,-1.429532 0.197754,-2.144531 0.062,-0.679 0.122641,-1.357134 0.181641,-2.036133 0.008,-0.095 0.0015,-0.190575 0.0015,-0.288575 -0.149,-0.019 -0.264551,-0.03373 -0.414551,-0.05273 0.068,-0.757999 0.136543,-1.503044 0.206543,-2.269043 0.426999,-0.031 0.825145,-0.06596 1.223144,-0.08496 0.133,-0.007 0.272368,0.01087 0.401368,0.04687 0.213999,0.059 0.425996,0.07766 0.645996,0.05566 0.343999,-0.034 0.688715,-0.06321 1.032715,-0.09521 0.081,-0.007 0.160699,-0.0169 0.241699,-0.0249 -10e-4,-0.017 -0.0024,-0.03427 -0.0044,-0.05127 -1.156998,-0.078 -2.315372,-0.15584 -3.505371,-0.235839 0.032,-0.342 0.06222,-0.669602 0.09522,-1.016602 5.079995,0.464999 10.125154,0.927602 15.202149,1.391602 -0.113,1.241998 -0.221984,2.449688 -0.333984,3.679687 -0.689,-0.061 -1.346091,-0.118246 -2.01709,-0.177246 -0.065,0.493 -0.04017,20.921302 0.02783,21.1333018 h 0.575684 c 0.133999,1.2249987 0.267367,2.4293217 0.401367,3.6533205 -0.354,0.044 -0.676883,0.083047 -1.004883,0.1230468 -0.02,0.091 -0.03613,0.1662072 -0.05713,0.2622071 -0.106,0.005 -0.203758,0.013184 -0.301758,0.013184 -0.636999,0.002 -1.273157,-0.00207 -1.910156,0.00293 -0.226,0.002 -0.453688,0.015551 -0.679688,0.039551 -0.730999,0.078 -1.461872,0.1660938 -2.192871,0.2460937 -1.399999,0.1539999 -2.799709,0.3030314 -4.199707,0.4570313 -1.552999,0.1719998 -3.10667,0.3470197 -4.659668,0.5200195 z M -5.6797301,6.4564921 h 5.21044947 C -0.3022808,4.3164943 -0.16253044,2.1734584 -5.3060657e-4,-5.3944048e-4 -1.7655288,-0.46553898 -3.4937162,-0.92028216 -5.2637145,-1.3862817 -5.4117143,1.2417157 -5.5447302,3.8384948 -5.6797301,6.4564921 Z M -86.055711,6.2206523 c -0.447999,0.024 -9.945629,-0.8684298 -9.994629,-0.9404298 -0.008,-0.073 -0.01783,-0.1510938 -0.02783,-0.2460937 -1.036999,-0.2079998 -2.065865,-0.4135589 -3.109864,-0.6225586 1.409999,-9.5879905 2.813682,-19.1462732 4.22168,-28.7182632 0.699,0.062 1.362415,0.121176 2.024414,0.180176 0.005,-0.022 0.0096,-0.04392 0.01465,-0.06592 -0.648999,-0.212 -1.297891,-0.423602 -1.962891,-0.641602 0.032,-0.176 0.05843,-0.322609 0.08643,-0.474609 1.270999,0.158 2.512396,0.31182 3.754395,0.46582 l 0.01172,-0.06152 c -1.225998,-0.318 -2.451267,-0.635008 -3.697265,-0.958008 0.033,-0.206 0.06036,-0.3805 0.08935,-0.5625 0.096,0.013 0.158727,0.01876 0.219727,0.03076 0.338999,0.065 0.677602,0.133754 1.016601,0.197753 0.061,0.012 0.149641,0.03779 0.181641,0.0088 0.139,-0.13 0.293988,-0.05987 0.437988,-0.04687 1.094999,0.097 2.189181,0.201757 3.28418,0.301757 0.904999,0.084 1.809357,0.165094 2.714356,0.246094 0.069,0.006 0.139769,0.0015 0.238769,0.0015 0.036,-0.671999 0.06593,-1.332188 0.106934,-1.992188 0.04,-0.655999 0.05465,-1.312188 0.118652,-1.992187 0.105,0.047 0.17284,0.071 0.23584,0.104004 0.484,0.250999 0.963661,0.50993 1.45166,0.752929 0.163,0.08 0.211192,0.187817 0.221192,0.361817 0.07,1.142999 0.152445,2.284271 0.231445,3.42627 0.002,0.035 0.0193,0.069 0.0293,0.104003 0.018,-0.002 0.0362,-0.0024 0.0542,-0.0044 0.148,-1.109999 0.295242,-2.220607 0.448242,-3.370606 0.559,0.292 1.081145,0.560821 1.598145,0.840821 0.046,0.025 0.07817,0.119175 0.07617,0.180175 -0.008,0.208 -0.0352,0.416024 -0.0542,0.624024 -0.102,1.103999 -0.204688,2.208013 -0.304688,3.312012 -0.08,0.877999 -0.156305,1.75579 -0.237305,2.633789 -0.101,1.102999 -0.206617,2.206548 -0.307617,3.310547 -0.081,0.885999 -0.156769,1.773157 -0.238769,2.660156 -0.117,1.284999 -0.238958,2.569006 -0.355957,3.854004 -0.1,1.0949994 -0.195434,2.1891814 -0.294434,3.2841803 -0.028,0.3059997 -0.06268,0.6111059 -0.09668,0.9331055 h -0.269531 c -0.026,0.1739999 -0.04878,0.3337932 -0.07178,0.487793 -0.314,0.033 -6.812278,-0.5810391 -7.009278,-0.6650391 0.11,-1.1939988 0.219984,-2.39256 0.333984,-3.6225587 1.178999,0.105 2.324232,0.207477 3.511231,0.313477 0.21,-3.951996 0.417953,-7.874364 0.626953,-11.81836 -1.145999,-0.104 -2.255861,-0.204153 -3.380859,-0.306153 -1.587999,8.011992 -3.169955,15.9869235 -4.751954,23.9619155 0.39,0.1 5.550598,0.5600898 5.787598,0.5170899 0.142,-1.54699849 0.285664,-3.0997831 0.430664,-4.6757815 1.234999,0.1139999 2.433365,0.2239142 3.672364,0.3369141 -0.23,2.63499732 -0.474379,5.2434248 -0.713379,7.8574222 -0.112,0.007 -0.189926,0.011113 -0.273926,0.016113 -0.027,0.1709998 -0.05264,0.3284689 -0.07764,0.4804688 z m 13.913087,-4.4868167 c 0.164,-1.79899815 0.324793,-3.5581465 0.487793,-5.3481448 -2.041998,-0.5809994 -4.047358,-1.1499811 -6.089356,-1.7299805 -0.21,1.5839984 -0.417418,3.1371932 -0.628418,4.72119163 2.071998,0.78399922 4.130983,1.56293451 6.229981,2.35693367 z M -61.654342,1.533152 c 1.37476,0.00954 6.309996,-0.1113164 6.645996,-0.1743164 -0.306,-7.1979928 -0.612387,-14.4010046 -0.921387,-21.6459976 -1.025999,-0.094 -2.018806,-0.18432 -3.049804,-0.27832 -1.009999,7.379993 -2.015974,14.7349226 -3.021973,22.0869153 0.02725,0.00725 0.150773,0.010355 0.347168,0.011719 z m 36.479005,-24.537599 c -0.287414,-0.01284 -0.523492,-0.251391 -0.530273,-0.544922 -0.008,-0.301999 0.231739,-0.560754 0.531738,-0.572754 0.294,-0.012 0.565473,0.23188 0.584473,0.525879 0.02,0.307 -0.247106,0.590797 -0.558106,0.591797 -0.0094,6.3e-5 -0.01856,4.14e-4 -0.02783,0 z m -4.205566,-0.320801 c -0.0675,3.75e-4 -0.12843,-4.29e-4 -0.19043,-0.0029 -0.131,-0.005 -0.262875,-0.0173 -0.421875,-0.0293 0.111,-1.863998 0.22059,-3.675745 0.32959,-5.510743 0.303,0.015 0.547215,0.02602 0.845215,0.04102 -0.038,0.651999 -0.07393,1.242985 -0.106934,1.833984 -0.01,0.165 -0.03118,0.333583 -0.01318,0.496582 0.052,0.481 0.374848,0.773649 0.818847,0.764649 0.432,-0.009 0.696536,-0.285762 0.748536,-0.780762 0.004,-0.042 0.0053,-0.08251 0.0073,-0.124512 0.032,-0.564999 0.06168,-1.129824 0.09668,-1.694824 0.007,-0.119 0.03413,-0.237648 0.05713,-0.389648 0.287,0.019 0.539567,0.0352 0.830567,0.0542 -0.066,0.913999 -0.09761,1.784509 -0.203613,2.645508 -0.064,0.527999 -0.384431,0.92025 -0.94043,1.03125 -0.448,0.09 -0.881301,0.03233 -1.258301,-0.263672 -0.058,-0.045 -0.127981,-0.07577 -0.229981,-0.134766 -0.05,0.716 -0.09655,1.383501 -0.143554,2.062501 -0.085,0 -0.158086,0.0011 -0.225586,0.0015 z m 16.113282,-0.751465 c -0.652999,0.009 -1.213672,-0.334074 -1.388672,-0.851074 -0.177,-0.520999 0.03799,-1.050133 0.541992,-1.286133 0.172,-0.08 0.365246,-0.114668 0.552246,-0.159668 0.214,-0.051 0.434997,-0.07916 0.645996,-0.13916 0.174,-0.05 0.27825,-0.185141 0.28125,-0.36914 0.003,-0.184 -0.106601,-0.310719 -0.266601,-0.386719 -0.072,-0.034 -0.15777,-0.04613 -0.23877,-0.05713 -0.432999,-0.063 -0.701019,0.166246 -0.895019,0.552246 -0.231,-0.083 -0.44404,-0.158305 -0.665039,-0.237305 0.024,-0.097 0.03027,-0.152683 0.05127,-0.200683 0.462,-1.050999 2.070634,-0.996109 2.598633,-0.28711 0.429,0.575 0.26914,1.341091 -0.380859,1.64209 -0.233,0.108 -0.50286,0.140684 -0.75586,0.200684 -0.148,0.035 -0.300312,0.04643 -0.445312,0.08643 -0.159,0.044 -0.258856,0.15766 -0.276856,0.32666 -0.019,0.185 0.07112,0.318621 0.224121,0.411621 0.271,0.165 0.648583,0.108234 0.871582,-0.134766 0.072,-0.078 0.129079,-0.168066 0.205079,-0.268066 0.216999,0.077 0.421094,0.149191 0.621093,0.221191 -0.185999,0.62 -0.619274,0.927035 -1.280273,0.936035 z m -18.361817,-0.06592 c -0.257,-0.013 -0.471872,-0.02562 -0.692872,-0.03662 -0.019,-0.295999 -0.0056,-0.560058 -0.05859,-0.810058 -0.07,-0.332 -0.407548,-0.319735 -0.685547,-0.427735 0.024,-0.227999 0.04724,-0.452406 0.07324,-0.691406 h 0.641602 c 0.024,-0.237 0.04852,-0.427164 0.06152,-0.618164 0.018,-0.275 0.02348,-0.551172 0.04248,-0.826172 0.014,-0.205 0.02552,-0.413235 0.06152,-0.615234 0.092,-0.508 0.418711,-0.810426 0.928711,-0.836426 0.225,-0.012 0.453844,0.04038 0.714844,0.06738 -0.014,0.264999 -0.02609,0.47759 -0.03809,0.70459 -0.12,0 -0.201715,-0.002 -0.282715,0 -0.387,0.012 -0.48209,0.101328 -0.51709,0.486328 -0.019,0.204999 -0.04481,0.410699 -0.0498,0.616699 -0.007,0.354 -0.0015,0.708731 -0.0015,1.07373 0.236,0.035 0.461704,0.0704 0.720704,0.108399 -0.024,0.249 -0.04438,0.462055 -0.06738,0.706055 h -0.730957 c -0.042,0.378999 -0.07912,0.727633 -0.120117,1.098632 z m 15.9375,-0.206542 c -0.299999,-0.025 -0.542437,-0.04499 -0.773437,-0.06299 -0.028,-0.13 -0.04924,-0.226914 -0.07324,-0.336914 -0.793,0.524 -1.667353,0.4415 -2.235352,-0.1875 -0.607999,-0.671999 -0.609394,-1.817743 -0.0044,-2.510742 0.277,-0.315 0.63004,-0.486387 1.04004,-0.546387 0.524999,-0.076 0.962727,0.110864 1.344726,0.484863 0.151,-0.699999 0.01913,-1.18091 -0.421875,-1.35791 -0.244,-0.098 -0.536735,-0.118539 -0.802734,-0.102539 -0.402,0.026 -0.571043,0.380336 -0.769043,0.694336 -0.247,-0.087 -0.472309,-0.167418 -0.716309,-0.253418 0.236,-0.751999 0.740548,-1.093637 1.435547,-1.202637 0.954999,-0.151 1.841543,0.332552 2.081543,1.164551 0.079,0.273 0.103539,0.569934 0.102539,0.856934 0,0.425999 -0.04231,0.853274 -0.07031,1.280273 -0.043,0.673 -0.0887,1.345079 -0.137696,2.080079 z m -5.758301,-0.213868 c -0.285911,-0.003 -0.57652,-0.09869 -0.824707,-0.303222 -0.092,-0.077 -0.174715,-0.164137 -0.282715,-0.265137 -0.049,0.139 -0.08916,0.250649 -0.13916,0.389648 -0.254,-0.028 -0.493649,-0.05542 -0.764648,-0.08642 0.076,-1.241999 0.148121,-2.445014 0.224121,-3.687012 0.303,0.028 0.545383,0.05164 0.817383,0.07764 0,0.172 0.0055,0.319286 -0.0015,0.467286 -0.027,0.606999 -0.07903,1.213336 -0.08203,1.819336 -0.002,0.467999 0.305211,0.760761 0.741211,0.780761 0.463999,0.021 0.73341,-0.20359 0.79541,-0.70459 0.046,-0.368999 0.05064,-0.742281 0.07764,-1.113281 0.028,-0.380999 0.05982,-0.761367 0.09082,-1.151367 0.191,0 0.340723,-0.0061 0.490722,0.0029 0.094,0.006 0.186915,0.03445 0.336915,0.06445 -0.052,0.864999 -0.100809,1.689673 -0.153809,2.513672 -0.007,0.095 -0.03838,0.18925 -0.06738,0.28125 -0.18375,0.583405 -0.71247,0.919724 -1.258301,0.914062 z m -3.205078,-0.322265 c -0.302,-0.017 -0.542496,-0.03134 -0.833496,-0.04834 0.074,-1.245999 0.144332,-2.450392 0.215332,-3.650391 h 0.842285 c -0.077,1.263999 -0.149121,2.467732 -0.224121,3.698731 z m 7.204102,-0.23877 c 0.03882,0.0022 0.07803,0.0017 0.118652,0 0.558,-0.023 0.928317,-0.466887 0.924317,-1.108887 -0.004,-0.612999 -0.374825,-1.019109 -0.944825,-1.037109 -0.557999,-0.017 -0.965812,0.38184 -1.007812,0.98584 -0.045,0.661874 0.327349,1.126864 0.909668,1.160156 z m -16.517579,-2.847656 c -0.328,0 -0.601586,-0.277911 -0.600586,-0.60791 0.002,-0.33 0.279911,-0.605051 0.60791,-0.602051 0.33,0.003 0.601121,0.27891 0.599121,0.60791 -0.003,0.33 -0.276445,0.602051 -0.606445,0.602051 z"
       transform="matrix(0.35277776,0,0,-0.35277776,35.011984,3.6854393)" />
  </g>
</svg>
