<?xml version="1.0" encoding="UTF-8" standalone="no"?>
<!-- Created with Inkscape (http://www.inkscape.org/) -->

<svg
   width="109.99957"
   height="109.99733"
   viewBox="0 0 29.104053 29.10346"
   version="1.1"
   id="svg1"
   xmlns="http://www.w3.org/2000/svg"
   xmlns:svg="http://www.w3.org/2000/svg">
  <defs
     id="defs1">
    <clipPath
       clipPathUnits="userSpaceOnUse"
       id="clipPath10788-0">
      <path
         d="M 0,841.89 H 595.28 V 0 H 0 Z"
         transform="translate(-551.75801,-709.91742)"
         id="path10788-3" />
    </clipPath>
  </defs>
  <path
     id="path10787-7"
     clip-path="url(#clipPath10788-0)"
     style="display:inline;fill:#000000 icc-color(sRGB-IEC61966-2, 0.1, 0, 0, 0);fill-opacity:1;fill-rule:nonzero;stroke:none"
     d="m -25.505345,48.506941 c -17.449601,-0.160698 -33.520153,-11.557328 -38.814298,-29.141986 -6.515876,-21.6426625 5.754438,-44.484332 27.39713,-50.999201 2.705457,-0.814483 5.429664,-1.334731 8.138295,-1.580548 18.9603871,-1.720721 37.1595178,10.038897 42.860907,28.9762243 6.515876,21.6426627 -5.7544574,44.4847787 -27.397131,51.0006557 -4.058184,1.221726 -8.158072,1.781939 -12.184903,1.744855 z m 0.0044,-0.997475 c 3.929025,0.03546 7.931483,-0.513081 11.89264,-1.705596 C 7.5168131,39.443799 19.48,17.175952 13.119927,-3.9492146 7.5548631,-22.433738 -10.190585,-33.902529 -28.692614,-32.220227 c -2.643144,0.240331 -5.301224,0.747732 -7.941998,1.542743 -21.125138,6.359075 -33.088344,28.627919 -26.728269,49.753084 5.167562,17.164203 20.83612,28.280208 37.861898,28.433866 z m -3.187268,-2.845568 -0.0058,-1.187955 2.484965,-0.01018 -0.02617,-6.6668 1.374073,-0.0058 0.02763,6.6668 2.496597,-0.01018 0.0073,1.187955 z m -3.200355,-0.549629 c -0.230812,-0.0048 -0.482799,-0.03431 -0.756104,-0.0887 l -3.398105,-0.677585 1.532564,-7.702081 1.347901,0.267544 -0.587435,2.956076 2.048751,0.408586 c 0.546609,0.108771 0.977474,0.273187 1.292646,0.492922 0.313745,0.226926 0.540724,0.477187 0.680494,0.751742 0.139759,0.274553 0.215022,0.555708 0.225377,0.841892 0.01604,0.294808 7.08e-4,0.560927 -0.04653,0.798271 -0.04724,0.237343 -0.134012,0.488463 -0.261728,0.75465 -0.120541,0.267618 -0.297953,0.502171 -0.532181,0.702304 -0.234215,0.200134 -0.54079,0.343774 -0.917502,0.433306 -0.188353,0.04476 -0.39732,0.06588 -0.628148,0.06107 z m 13.913764,-0.119232 c -0.269642,0.0039 -0.530724,-0.02234 -0.783731,-0.07852 -0.498854,-0.113955 -0.947081,-0.317511 -1.343538,-0.612153 -0.396463,-0.294638 -0.734433,-0.665508 -1.014924,-1.113799 -0.273356,-0.449886 -0.470265,-0.947929 -0.591797,-1.491851 -0.123129,-0.551077 -0.157664,-1.087636 -0.101783,-1.611083 0.06303,-0.525044 0.2116,-1.005599 0.444938,-1.440959 0.233344,-0.435359 0.552395,-0.809985 0.955308,-1.125431 0.411663,-0.30989 0.903307,-0.529304 1.475857,-0.657229 0.572548,-0.127927 1.106556,-0.138796 1.603812,-0.03199 0.50601,0.112367 0.95726,0.316059 1.353717,0.610699 0.396445,0.294643 0.731394,0.666822 1.004745,1.116707 0.280503,0.448292 0.483208,0.948043 0.606338,1.499122 0.121524,0.543922 0.150242,1.07877 0.08724,1.603812 -0.0559,0.523445 -0.199957,1.002694 -0.433305,1.438051 -0.233347,0.43536 -0.55542,0.811294 -0.965487,1.12834 -0.402908,0.315446 -0.89022,0.536573 -1.46277,0.664499 -0.286279,0.06396 -0.564981,0.09789 -0.834622,0.101783 z M -31.962763,42.96121 c 0.165393,-0.0045 0.320079,-0.04578 0.462387,-0.122139 0.140884,-0.06917 0.263031,-0.178961 0.367874,-0.330069 0.10484,-0.151109 0.182562,-0.353154 0.232647,-0.604883 0.04865,-0.244534 0.04616,-0.457187 -0.0073,-0.63978 -0.04764,-0.173974 -0.129132,-0.325777 -0.245734,-0.453662 -0.110862,-0.119261 -0.241503,-0.216169 -0.391138,-0.290809 -0.149635,-0.07464 -0.29971,-0.126981 -0.450755,-0.157037 l -1.974594,-0.392593 -0.506008,2.546034 1.994951,0.396955 c 0.179799,0.03578 0.352249,0.05245 0.51764,0.04798 z m 13.992283,-0.09597 c 0.186326,0.0016 0.380559,-0.0213 0.584526,-0.06689 0.407943,-0.09115 0.740823,-0.251119 0.997476,-0.481289 0.263817,-0.231768 0.457901,-0.508113 0.581618,-0.828806 0.125296,-0.31354 0.191804,-0.655208 0.199204,-1.025102 0.01463,-0.371475 -0.01884,-0.740076 -0.100329,-1.105075 -0.08154,-0.364999 -0.208106,-0.712651 -0.379506,-1.042551 -0.164237,-0.331497 -0.370983,-0.615983 -0.619423,-0.853525 -0.24685,-0.230387 -0.537967,-0.39402 -0.875336,-0.491467 -0.330209,-0.09905 -0.70004,-0.102792 -1.107983,-0.01163 -0.407939,0.09115 -0.743846,0.252428 -1.007653,0.484198 -0.25667,0.230166 -0.447582,0.502184 -0.572894,0.815719 -0.123721,0.320695 -0.193213,0.666718 -0.207929,1.038189 -0.0076,0.369873 0.02896,0.737167 0.110508,1.102167 0.08154,0.364997 0.203632,0.71396 0.367873,1.045459 0.171385,0.329895 0.382758,0.610053 0.629602,0.840438 0.248454,0.237542 0.536399,0.405507 0.866611,0.504554 0.168684,0.04872 0.347306,0.07405 0.533635,0.07561 z m -22.495542,-1.121069 -1.344993,-0.577256 0.331523,-8.407293 1.304279,0.561262 -0.143951,2.201425 2.880465,1.237393 1.497667,-1.619807 1.355171,0.581618 z M -8.4217613,40.774326 -10.995422,36.45581 c -0.259006,-0.434677 -0.417774,-0.851816 -0.476927,-1.251934 -0.05915,-0.400113 -0.03532,-0.781197 0.0727,-1.144334 0.118065,-0.36059 0.315444,-0.69639 0.591797,-1.0062 0.276365,-0.309806 0.622409,-0.588316 1.0381883,-0.836076 0.4157757,-0.247759 0.826128,-0.419113 1.2301227,-0.514732 0.4040003,-0.09562 0.7889472,-0.107891 1.1559664,-0.03635 0.3770671,0.07409 0.7275312,0.231558 1.0512751,0.474019 0.3237495,0.242448 0.6148623,0.581701 0.8738815,1.016378 l 2.573661,4.318516 -1.1806851,0.703758 -2.3424678,-3.93174 C -6.5430521,34.020326 -6.6931077,33.797777 -6.857208,33.579707 -7.0150029,33.357882 -7.2045746,33.18433 -7.4242859,33.059159 -7.6339662,32.93653 -7.8803358,32.879641 -8.1658492,32.887581 c -0.279208,0.0042 -0.6117455,0.121436 -0.9960214,0.350425 -0.3842844,0.228989 -0.6481359,0.466609 -0.7910009,0.713937 -0.1365795,0.243571 -0.2038855,0.489242 -0.2021125,0.735747 0.01182,0.249056 0.07535,0.496369 0.1890261,0.744471 0.1199781,0.244349 0.2472699,0.479879 0.382414,0.706667 l 2.3424678,3.931739 z m -32.1780327,-0.559808 2.41517,-2.639093 -2.20288,-0.946584 -0.241371,3.57259 z m 39.63728756,-5.07462 c -0.20413716,-0.0047 -0.40686376,-0.03751 -0.60924516,-0.09887 -0.3134512,-0.09785 -0.6069902,-0.291657 -0.8782437,-0.580164 -0.1406309,-0.149596 -0.2594843,-0.3135 -0.3576952,-0.492922 -0.092882,-0.184432 -0.1515444,-0.386229 -0.1759396,-0.604883 -0.02448,-0.218645 -0.00591,-0.45638 0.0538,-0.713936 0.070118,-0.257244 0.1969291,-0.533626 0.3824141,-0.828806 0.2949057,-0.478572 0.5440871,-0.877521 0.7459254,-1.198134 0.2122127,-0.320298 0.3849498,-0.614015 0.5176403,-0.879698 0.077378,-0.153239 0.1133585,-0.329091 0.1090535,-0.526364 0.00619,-0.196946 -0.093587,-0.404734 -0.2995335,-0.623786 -0.1004788,-0.106861 -0.2232167,-0.193591 -0.3664195,-0.260274 -0.138183,-0.06132 -0.2923119,-0.08595 -0.4638406,-0.07561 -0.1715258,0.01027 -0.360454,0.06041 -0.5656238,0.152675 -0.2001417,0.0976 -0.4090977,0.250621 -0.6281478,0.456571 -0.2030398,0.190889 -0.372787,0.390566 -0.508916,0.599066 -0.1257463,0.208823 -0.2098411,0.423839 -0.253004,0.645597 -0.038014,0.227111 -0.022782,0.452323 0.047983,0.677585 0.070878,0.225257 0.2099079,0.448354 0.4158571,0.667407 l -1.0018375,0.942222 c -0.326175,-0.35766 -0.5480346,-0.728546 -0.665953,-1.110891 -0.1128874,-0.377011 -0.1408718,-0.748699 -0.082881,-1.115253 0.058019,-0.366549 0.1939494,-0.726055 0.4071328,-1.077448 0.2131693,-0.351395 0.4825418,-0.679428 0.8084495,-0.985843 0.283178,-0.266229 0.5942618,-0.49231 0.9320433,-0.67904 0.3327591,-0.192071 0.6728538,-0.317016 1.0221942,-0.373689 0.3493433,-0.05669 0.6946296,-0.0326 1.0338266,0.07125 0.34957112,0.104162 0.6742676,0.316321 0.97566468,0.636872 0.14063096,0.149601 0.25785283,0.32139 0.35042504,0.516186 0.09791831,0.189782 0.15884274,0.393519 0.18320976,0.612153 0.0347498,0.218958 0.0302453,0.445464 -0.0130864,0.677586 -0.0434724,0.232108 -0.13144275,0.464818 -0.26318229,0.699396 -0.0546992,0.09168 -0.15033775,0.242229 -0.28644701,0.450754 -0.12574626,0.208822 -0.25615669,0.422354 -0.39259237,0.641234 -0.13643847,0.218859 -0.26215161,0.418105 -0.37659791,0.596159 -0.1040521,0.178366 -0.1639538,0.279926 -0.1803016,0.30535 -0.1477779,0.249654 -0.2331489,0.4899 -0.2559121,0.72266 -0.01238,0.23308 0.076632,0.451294 0.2675444,0.654321 0.1356226,0.144252 0.2802232,0.234557 0.43475974,0.270452 0.15987697,0.03088 0.31646311,0.02601 0.46820274,-0.01599 0.15675371,-0.03667 0.30632533,-0.102126 0.44930014,-0.196296 0.14800297,-0.08881 0.28086718,-0.189018 0.39840855,-0.299534 0.34727296,-0.326521 0.5610606,-0.672283 0.63978073,-1.0382 0.083793,-0.360553 -0.034921,-0.737478 -0.35478717,-1.131248 L 1.7027595,30.286293 c 0.2811775,0.299192 0.4678313,0.616035 0.5612616,0.950946 0.098453,0.340252 0.1198682,0.68364 0.062524,1.029465 -0.052032,0.340794 -0.1768598,0.67443 -0.3736898,1.000383 -0.1864246,0.326346 -0.429283,0.628933 -0.7284769,0.910233 -0.25645311,0.241114 -0.54293264,0.445515 -0.85934104,0.612153 -0.31138588,0.171979 -0.631385,0.281667 -0.95967022,0.328614 -0.12310133,0.01761 -0.24541379,0.02463 -0.36787358,0.02181 z M -25.368665,33.805084 C -36.552701,33.703141 -46.849223,26.399816 -50.243026,15.126412 -54.420014,1.2524537 -46.559381,-13.380641 -32.685423,-17.557629 -18.811465,-21.734617 -4.1769156,-13.873984 7.1864209e-5,-2.6283652e-5 4.1770593,13.873932 -3.6835724,28.508481 -17.557531,32.685469 c -2.601554,0.783185 -5.230202,1.14314 -7.811134,1.119615 z M 3.8372987,29.079435 C 3.5257158,29.072035 3.2094031,29.026334 2.8892608,28.944209 2.3811042,28.806741 1.8967627,28.584128 1.433761,28.273894 0.96466193,27.959583 0.56908385,27.592342 0.24871369,27.174635 c -0.31629866,-0.423792 -0.53922274,-0.873116 -0.6703151,-1.349354 -0.13109237,-0.476244 -0.16018412,-0.968136 -0.0857887,-1.474403 0.0844967,-0.508292 0.28994094,-1.005933 0.61651541,-1.493305 0.32655476,-0.487372 0.70758312,-0.862916 1.1414259,-1.128339 0.4440174,-0.267436 0.9113883,-0.431598 1.4017002,-0.491468 0.4903034,-0.05985 0.9895105,-0.02114 1.4976671,0.116324 0.5122338,0.131365 1.0024008,0.354534 1.4714944,0.668861 0.4630044,0.310229 0.8527513,0.676928 1.1690528,1.100713 0.3203785,0.417698 0.5464929,0.864388 0.6775853,1.34063 0.1310643,0.476238 0.1570219,0.970767 0.078519,1.483127 -0.074336,0.506277 -0.2754174,1.003021 -0.601975,1.490397 -0.3265548,0.487372 -0.711949,0.865267 -1.1559664,1.132701 -0.4399373,0.261343 -0.904118,0.42142 -1.3944299,0.481289 -0.18385,0.02245 -0.3699487,0.03207 -0.5568995,0.02763 z m 0.382414,-1.269382 C 4.563437,27.810859 4.8893398,27.733296 5.1968315,27.577406 5.5083806,27.415424 5.7798713,27.161285 6.0125512,26.814032 6.2452478,26.466782 6.37499,26.120959 6.4022354,25.777297 6.4335525,25.427537 6.383955,25.093055 6.2524687,24.77546 6.1271165,24.461942 5.9392872,24.168886 5.689753,23.895762 5.4443101,23.616545 5.1672841,23.372564 4.8565848,23.164377 4.5458883,22.956179 4.2135976,22.792282 3.8620175,22.671456 3.5145199,22.544527 3.1690043,22.480356 2.8252828,22.479522 c -0.3376296,0.0033 -0.6611822,0.08667 -0.9727566,0.248641 -0.307472,0.155907 -0.5786777,0.407399 -0.8113576,0.75465 -0.2326966,0.347253 -0.36417499,0.695706 -0.39550041,1.045459 -0.0272933,0.343665 0.0213937,0.672329 0.14685863,0.985843 0.13145814,0.3176 0.32017528,0.616477 0.56562378,0.895692 0.249523,0.273117 0.529742,0.513023 0.8404385,0.721207 0.3106993,0.208198 0.6397996,0.376191 0.9872971,0.5031 0.351583,0.120828 0.6961941,0.179215 1.0338265,0.175939 z M -16.231441,20.917876 c 0.08097,0.0013 0.169182,-0.01605 0.263182,-0.0538 1.517996,-0.608999 2.770237,-1.503555 3.283235,-3.16255 0.018,-0.057 0.01424,-0.131123 0.103238,-0.170123 0.198999,0.205999 0.390791,0.43024 0.607791,0.625239 1.393996,1.254997 3.0097292,1.494107 4.7707241,1.009108 0.3829988,-0.106 0.5057004,-0.385996 0.3417007,-0.806995 -0.8219974,-2.126994 -2.3900959,-3.590812 -5.0120958,-3.454813 -0.665998,0.034 -0.666158,0.0373 -0.865157,-0.610699 -0.012,-0.041 -0.02335,-0.08114 -0.03635,-0.12214 -0.135,-0.451999 -0.135374,-0.451884 0.296625,-0.604883 0.851997,-0.300999 1.197545,-0.914928 1.058545,-1.805925 -0.386999,-2.4759926 -0.759519,-4.953182 -1.138518,-7.4301739 -0.212999,-1.3899957 -0.424688,-2.7797527 -0.642688,-4.1687493 -0.022,-0.14199986 -0.03056,-0.26850158 0.04944,-0.39550045 0.273999,-0.43599957 0.275772,-0.90543585 0.133772,-1.37843545 -0.984997,-3.2859897 -1.975256,-6.5700775 -2.966253,-9.8540679 -0.079,-0.263 -0.208193,-0.489532 -0.500192,-0.568532 -8.943973,2.6929921 -17.887988,5.3856858 -26.832961,8.0786781 -0.148,0.2439988 -0.136254,0.4929213 -0.05525,0.76192 1.255996,4.15598788 2.504712,8.3124551 3.758709,12.4684426 0.396998,1.3169963 1.748425,1.6720253 2.739422,0.7110284 1.573995,-1.5239954 3.134935,-3.0617901 4.70093,-4.5947847 0.053,-0.052 0.104945,-0.1041289 0.159945,-0.1541288 0.402999,-0.3759996 0.764589,-0.2888042 0.930589,0.2311933 0.141999,0.4439995 0.302863,0.8851774 0.399863,1.3391761 0.211,0.995997 1.612853,1.6215499 2.55185,0.7735524 1.624997,-1.4689956 3.292307,-2.8910599 4.942302,-4.3330565 0.152,-0.1319988 0.299025,-0.2705924 0.458024,-0.3925923 0.352,-0.2699997 0.633915,-0.1814432 0.777915,0.2355554 0.141999,0.4099986 0.224133,0.8374863 0.407132,1.2344849 0.262,0.5719984 0.706,0.8909515 1.328998,0.9349514 0.21,0.014 0.311409,0.091632 0.398409,0.2806308 1.051997,2.2859928 2.114185,4.5665629 3.174182,6.8485559 0.141999,0.306999 0.278036,0.617866 0.426035,0.921865 0.352999,0.723998 0.926685,1.008432 1.718682,0.856433 0.093,-0.018 0.185723,-0.04625 0.277723,-0.07125 0.13,-0.036 0.246804,-0.05758 0.306804,0.113415 0.056,0.156 -0.006,0.226263 -0.143951,0.292263 -0.353999,0.169 -0.691654,0.366522 -1.007654,0.600521 -1.452995,1.079997 -1.975999,2.559613 -1.851,4.315608 0.025,0.348999 0.06312,0.695919 0.170124,1.030919 0.093,0.293999 0.27328,0.465766 0.516186,0.469656 z m 0.498738,-1.356624 c -0.08977,-0.0024 -0.09865,-0.112633 -0.106146,-0.209383 -0.12,-1.700995 0.421669,-2.856895 2.035664,-3.752892 0.173,-0.095 0.219648,-0.0236 0.232648,0.145404 0.038,0.530999 0.02131,1.055825 -0.120686,1.571824 -0.285999,1.045997 -1.029797,1.691243 -1.920795,2.207241 -0.05075,0.0275 -0.09076,0.0386 -0.120685,0.03781 z m 6.7104208,-1.282469 c -1.4329958,-0.06 -2.3880328,-0.850305 -3.0840308,-2.031302 -0.057,-0.096 -0.108016,-0.199827 0.04798,-0.226831 0.043,-0.004 0.06334,-0.0053 0.08433,-0.0073 1.842994,-0.157 2.9475213,0.538034 3.7805189,2.040026 0.088,0.159 0.014682,0.214561 -0.1323182,0.219561 -0.2319991,0.007 -0.4644885,0.01582 -0.6964879,0.0058 z m -5.9063338,-5.202576 c -0.189187,0.01856 -0.265323,-0.06987 -0.385322,-0.328614 -0.853998,-1.839994 -1.711394,-3.6785632 -2.566391,-5.5195577 -0.341999,-0.7379978 -0.68073,-1.4787618 -1.052729,-2.28576 -0.059,-0.1069989 0.01177,-0.2296089 0.149766,-0.3446088 1.428996,-1.1939968 2.85617,-2.3886801 4.282165,-3.5856769 0.164,-0.13700188 0.251993,-0.12757873 0.284993,0.097421 0.07,0.4809986 0.145107,0.9624149 0.218107,1.4424135 0.287999,1.8809941 0.574704,3.7607032 0.863703,5.6416976 0.191,1.2429963 0.379711,2.4861773 0.578711,3.7281733 0.051,0.319999 -0.05515,0.49271 -0.375144,0.57871 -0.592999,0.159 -1.177214,0.349911 -1.765212,0.524911 -0.094,0.02775 -0.169584,0.0447 -0.232647,0.05089 z M -38.066847,9.4280066 c -0.203895,0.017969 -0.379086,-0.128146 -1.036734,-2.2973924 -0.657649,-2.1692462 -1.820705,-6.0332474 -2.983702,-9.8962356 -0.131,-0.4359985 -0.129464,-0.4366239 0.299533,-0.5656238 4.065988,-1.2249957 8.132002,-2.4489238 12.19799,-3.6729196 4.095987,-1.2329958 8.193153,-2.4654579 12.288141,-3.7034542 0.231999,-0.07 0.378203,-0.09598 0.468203,0.20502 0.914997,3.07499 1.842414,6.1476604 2.771411,9.2186503 0.084,0.2779997 0.03407,0.48667742 -0.191934,0.67467723 -0.649998,0.54199846 -1.291699,1.09661924 -1.939697,1.64161767 -1.149996,0.9669971 -2.30227,1.9310081 -3.456267,2.8950052 -0.486998,0.4069976 -0.806114,0.3081028 -0.993113,-0.3038956 -0.099,-0.3239987 -0.186626,-0.6517579 -0.296625,-0.9727566 -0.218,-0.6349984 -0.787594,-1.0292806 -1.452592,-1.0352806 -0.465999,-0.005 -0.828691,0.2066461 -1.164691,0.5016458 -1.734994,1.5209945 -3.472851,3.0404379 -5.209846,4.5584335 -0.433997,0.3799989 -0.770223,0.2861782 -0.942222,-0.2588201 -0.156999,-0.4939985 -0.274928,-1.0052201 -0.476927,-1.4802187 -0.478999,-1.1259968 -1.740917,-1.3657293 -2.628914,-0.5147322 -0.618999,0.5929994 -1.220645,1.2039265 -1.830644,1.8059249 -1.009997,0.996997 -2.017688,1.996067 -3.031685,2.9880641 -0.134625,0.1319994 -0.267348,0.2015097 -0.389685,0.2122907 z m 0.516187,-6.1971432 c 0.08717,5.8e-4 0.186533,-0.015938 0.299533,-0.049438 1.459995,-0.4329986 2.91923,-0.8713679 4.375224,-1.3173655 0.416002,-0.1269999 0.552942,-0.390358 0.428943,-0.8113575 -0.438998,-1.47999356 -0.883269,-2.9592992 -1.336268,-4.4362937 -0.127999,-0.4200346 -0.385451,-0.5510343 -0.808449,-0.4260354 -1.469994,0.4369985 -2.940218,0.8795452 -4.407213,1.3275438 -0.406979,0.1249998 -0.527679,0.3677331 -0.405679,0.7837306 0.220998,0.75099729 0.450132,1.49895757 0.676131,2.24795482 0.218999,0.72999628 0.435684,1.46034268 0.658683,2.18833888 0.102749,0.3337497 0.25758,0.4912215 0.519095,0.492922 z m -16.43508,-1.0527291 -7.70208,-1.54128853 0.270452,-1.34790044 7.700627,1.54128853 z m 17.010882,-0.2413716 c -0.133687,0.00713 -0.212841,-0.062734 -0.266091,-0.2457337 -0.286998,-0.98499605 -0.581969,-1.96880886 -0.886968,-2.9488049 -0.076,-0.2439987 0.0051,-0.343041 0.234102,-0.4100409 0.965996,-0.2819987 1.927739,-0.5725197 2.887735,-0.8695194 0.219999,-0.067999 0.331046,-0.021524 0.394046,0.2064745 0.134999,0.4899985 0.289214,0.9743175 0.436214,1.46131604 0.15,0.4969975 0.291209,0.99594537 0.452208,1.48894288 0.074,0.22699877 0.04062,0.34531121 -0.209383,0.41731118 -0.965996,0.2789977 -1.926738,0.5715206 -2.887734,0.8695193 -0.05775,0.01801 -0.109569,0.028135 -0.154129,0.030535 z m 7.098651,-1.01201587 c 0.103874,-0.00381 0.225624,-0.0284983 0.367874,-0.0712482 1.379995,-0.41299859 2.758766,-0.82766561 4.13676,-1.24466319 0.586997,-0.17799982 0.689277,-0.37512685 0.513278,-0.96112434 -0.212999,-0.7099973 -0.427234,-1.4197257 -0.641234,-2.128723 -0.222999,-0.7409972 -0.443315,-1.4813306 -0.670315,-2.2203279 -0.122,-0.3980006 -0.350928,-0.534311 -0.745926,-0.4173111 -1.482994,0.4389985 -2.963116,0.8842705 -4.442109,1.336268 -0.405987,0.1239989 -0.531587,0.3765374 -0.408587,0.8215359 0.158,0.5709974 0.336462,1.1375973 0.507462,1.7055957 0.258999,0.8619961 0.515369,1.72284226 0.779368,2.5838394 0.132749,0.43124857 0.291806,0.60759876 0.603429,0.59615873 z m 0.51037,-1.27810624 c -0.125625,0.005721 -0.196938,-0.0623525 -0.247188,-0.23410137 -0.289999,-0.99599602 -0.589148,-1.98979782 -0.897146,-2.98079382 -0.072,-0.2299998 1.08e-4,-0.3242303 0.218107,-0.3882303 0.984996,-0.2889987 1.967809,-0.5844232 2.948805,-0.8884219 0.221,-0.068 0.328138,-0.020616 0.391138,0.2093826 0.136999,0.4999975 0.294939,0.9933984 0.444938,1.4903969 0.145999,0.4869975 0.284485,0.9768634 0.443484,1.459862 0.075,0.2259997 0.04452,0.3438571 -0.206474,0.415857 -0.985996,0.28499976 -1.969262,0.58296928 -2.950259,0.88696798 -0.05526,0.01725 -0.103525,0.0271809 -0.145405,0.0290809 z m -23.999025,-0.81281159 -7.241148,-3.0418638 0.507462,-1.206858 5.323261,2.2377765 0.01309,-0.030535 -3.93901,-5.5326442 0.561261,-1.3391765 7.241148,3.0418641 -0.506008,1.206858 -5.334894,-2.2406845 -0.0087,0.020357 3.94628,5.5471847 z m 31.115125,-0.2093826 c 0.0945,-7.8e-4 0.203161,-0.019708 0.327161,-0.056708 1.419994,-0.4219986 2.837997,-0.8495627 4.255992,-1.2795603 0.508998,-0.1549998 0.630926,-0.3941432 0.476927,-0.9131407 -0.213999,-0.7199973 -0.431506,-1.4388067 -0.648505,-2.157804 -0.215999,-0.7189962 -0.430413,-1.4398066 -0.651412,-2.1578039 -0.148,-0.4830045 -0.374705,-0.6040233 -0.863703,-0.4580244 -1.428995,0.4279986 -2.85708,0.85774 -4.285073,1.2897386 -0.503997,0.1529998 -0.621657,0.3746073 -0.469657,0.8826058 0.430997,1.4389935 0.863918,2.8786133 1.299917,4.3156079 0.1125,0.3719976 0.274855,0.5373888 0.558353,0.535089 z m 0.543813,-1.2839224 c -0.12628,0.00483 -0.199141,-0.063852 -0.248641,-0.2341014 -0.290999,-0.994996 -0.591695,-1.9887978 -0.895693,-2.9807938 -0.062,-0.1999988 -0.02943,-0.314052 0.187572,-0.3780519 0.984996,-0.2899988 1.968809,-0.5844223 2.948805,-0.888422 0.234999,-0.073 0.324868,0.016285 0.383868,0.2282852 0.138,0.4889985 0.291669,0.9728644 0.437668,1.4598619 0.149999,0.4969985 0.293209,0.9949454 0.452208,1.4889429 0.068,0.2139998 0.03089,0.3289546 -0.202112,0.3969545 -0.974996,0.2839977 -1.947274,0.577245 -2.91827,0.8782437 -0.055,0.017 -0.103311,0.027481 -0.145405,0.029081 z m -28.284098,-5.9121502 -6.166608,-4.8637828 2.015307,-2.556213 c 0.372372,-0.472157 0.776074,-0.816949 1.209766,-1.03528 0.43369,-0.218319 0.875687,-0.327785 1.324636,-0.328615 0.4547,0.0037 0.909351,0.100651 1.365349,0.292263 0.460554,0.185764 0.904359,0.446226 1.330452,0.782277 0.426092,0.336049 0.782189,0.706311 1.070178,1.110891 0.292531,0.398815 0.490881,0.81661 0.594704,1.253388 0.109582,0.441321 0.109787,0.898534 -0.0015,1.371165 -0.111236,0.472635 -0.353196,0.945534 -0.725569,1.417694 z m -0.02908,-1.7739358 0.83753,-1.062907 c 0.331501,-0.420335 0.544596,-0.807546 0.638326,-1.163237 0.10403,-0.35691 0.114011,-0.690281 0.03054,-0.99893 -0.07316,-0.309863 -0.225362,-0.597 -0.455116,-0.862249 -0.219461,-0.266461 -0.484429,-0.522515 -0.795363,-0.767736 -0.310933,-0.245218 -0.624733,-0.446119 -0.940768,-0.601975 -0.305739,-0.157063 -0.619536,-0.237911 -0.943675,-0.241371 -0.313835,-0.0048 -0.635435,0.08335 -0.964033,0.263182 -0.318297,0.178588 -0.644164,0.478264 -0.975664,0.8986 l -0.837531,1.062908 z m 5.161863,-4.367954 -2.950259,-4.069874 c -0.296989,-0.409669 -0.49261,-0.810759 -0.587435,-1.20395 -0.09483,-0.393183 -0.105504,-0.775881 -0.03054,-1.147242 0.08522,-0.369725 0.251299,-0.720824 0.498738,-1.054183 0.247438,-0.333361 0.567812,-0.642151 0.95967,-0.926227 0.391856,-0.284073 0.783996,-0.492296 1.177777,-0.623786 0.393784,-0.131514 0.77674,-0.177911 1.148696,-0.139588 0.382194,0.03993 0.746322,0.167166 1.090535,0.379506 0.3442,0.21241 0.664136,0.522374 0.961124,0.932043 l 2.950259,4.069874 -1.112345,0.806996 -2.685623,-3.704909 c -0.15495,-0.21376 -0.324455,-0.421328 -0.507462,-0.623786 -0.177069,-0.206753 -0.380639,-0.361804 -0.610699,-0.466748 -0.219813,-0.103293 -0.471002,-0.138203 -0.75465,-0.104692 -0.27771,0.02923 -0.5975,0.175123 -0.95967,0.437668 -0.362172,0.262551 -0.604031,0.523125 -0.724115,0.782277 -0.114151,0.254841 -0.159123,0.504933 -0.135226,0.750287 0.03413,0.246991 0.118956,0.488672 0.254458,0.725569 0.141439,0.232585 0.289987,0.455122 0.444938,0.668861 l 2.685623,3.704909 z m 39.2490573,-0.366419 -1.0120159,-0.929135 5.3130833,-5.784194 3.9520964,3.630752 -0.8026332,0.875335 -2.9415346,-2.701617 z m -4.4362933,-3.132015 -1.269382,-0.728477 1.298463,-8.312779 1.2315763,0.706666 -0.3969545,2.17089 2.7190656,1.561645 1.6736067,-1.436597 1.2781062,0.734293 z m 0.04362,-1.535472 2.7030711,-2.342468 -2.0792855,-1.193771 -0.6514126,3.520244 z m -26.880944,-0.06543 c -0.213395,-0.0028 -0.421298,-0.02952 -0.622332,-0.07997 -0.321659,-0.08064 -0.614164,-0.228674 -0.87679,-0.44203 -0.253149,-0.209144 -0.44983,-0.498386 -0.591796,-0.868065 -0.07361,-0.1917 -0.122352,-0.388551 -0.145405,-0.591797 -0.01624,-0.20588 0.0053,-0.41508 0.06543,-0.626693 0.06013,-0.211622 0.167095,-0.425441 0.31989,-0.641234 0.162269,-0.211566 0.385499,-0.419253 0.668861,-0.622332 0.454014,-0.331465 0.834765,-0.606909 1.14288,-0.827352 0.317591,-0.216237 0.588017,-0.422228 0.811358,-0.61797 0.129573,-0.112605 0.2289,-0.260693 0.299533,-0.444938 0.08014,-0.180022 0.06708,-0.409995 -0.04071,-0.690671 -0.05256,-0.136917 -0.132574,-0.263619 -0.239917,-0.379506 -0.104728,-0.109033 -0.23866,-0.191842 -0.401317,-0.247188 -0.162691,-0.05532 -0.356798,-0.07904 -0.581618,-0.07125 -0.222202,0.01463 -0.472511,0.07541 -0.753196,0.18321 -0.260146,0.09991 -0.493062,0.220514 -0.697942,0.362057 -0.195398,0.145724 -0.354548,0.314145 -0.478381,0.5031 -0.121194,0.19578 -0.19269,0.41026 -0.212291,0.645596 -0.01961,0.235342 0.02454,0.494325 0.132318,0.775006 l -1.283922,0.492922 c -0.166684,-0.454451 -0.231786,-0.881011 -0.196296,-1.27956 0.03811,-0.391696 0.153719,-0.74698 0.346063,-1.064362 0.192332,-0.317384 0.45349,-0.598695 0.78373,-0.843346 0.330246,-0.244656 0.703471,-0.445969 1.12107,-0.606337 0.362828,-0.139337 0.736301,-0.232647 1.119615,-0.277723 0.38069,-0.05194 0.744264,-0.03752 1.08908,0.04217 0.344802,0.0798 0.65443,0.232129 0.929135,0.456571 0.284206,0.228644 0.505304,0.547462 0.663045,0.958216 0.07361,0.191699 0.115942,0.395349 0.127956,0.610699 0.01885,0.212691 -0.0024,0.425242 -0.06252,0.636872 -0.05068,0.215843 -0.139519,0.422449 -0.267544,0.620878 -0.128054,0.198424 -0.296772,0.382315 -0.507462,0.549629 -0.08534,0.06418 -0.231317,0.166715 -0.436214,0.308258 -0.195415,0.145723 -0.397236,0.293946 -0.606337,0.444938 -0.209118,0.150984 -0.401072,0.287048 -0.574348,0.408586 -0.163816,0.125775 -0.257315,0.197838 -0.282085,0.215199 -0.231206,0.175212 -0.401273,0.366027 -0.51037,0.572894 -0.09963,0.211059 -0.09989,0.446525 0,0.706666 0.07099,0.184836 0.171527,0.32272 0.300988,0.414404 0.136325,0.08905 0.282756,0.142912 0.439121,0.161399 0.158977,0.02532 0.322033,0.02129 0.490014,-0.01163 0.170597,-0.02617 0.332126,-0.0672 0.482743,-0.125048 0.444983,-0.170879 0.773102,-0.410807 0.984389,-0.719752 0.213901,-0.302101 0.246034,-0.696627 0.09887,-1.18214 l 1.283922,-0.492921 c 0.147216,0.383367 0.201608,0.748078 0.1614,1.093442 -0.03756,0.352214 -0.149073,0.677231 -0.332977,0.975665 -0.177041,0.295784 -0.418626,0.557896 -0.724115,0.785185 -0.296013,0.231515 -0.635916,0.419851 -1.019286,0.567078 -0.328599,0.126195 -0.670623,0.206818 -1.026556,0.241371 -0.132499,0.01548 -0.261651,0.0235 -0.389684,0.02181 z m 21.801962,-0.748834 -1.307187,-0.428943 2.451521,-7.462163 1.305733,0.428943 z m -16.750607,-1.017832 -0.152675,-1.177777 2.464607,-0.321344 -0.860795,-6.610092 1.363895,-0.177394 0.860795,6.610092 2.47624,-0.322798 0.152675,1.179231 z m 11.780679,-0.324252 c -0.190744,6.33e-4 -0.393004,-0.01212 -0.607792,-0.0378 l -3.723811,-0.447846 0.936406,-7.798048 1.365349,0.164307 -0.385322,3.210534 2.009491,0.241371 c 0.313073,0.03762 0.573161,0.02879 0.779368,-0.02763 0.213508,-0.0556 0.388874,-0.163534 0.526365,-0.324252 0.136607,-0.153462 0.241776,-0.359658 0.316982,-0.616515 0.07434,-0.24958 0.133058,-0.552018 0.175939,-0.908779 0.02279,-0.189309 0.05401,-0.385324 0.09306,-0.587434 0.04634,-0.20124 0.12949,-0.379889 0.25155,-0.535089 l 1.464224,0.175939 c -0.164856,0.142685 -0.305704,0.396438 -0.423127,0.759012 -0.111002,0.370737 -0.195003,0.784516 -0.250096,1.243209 -0.03675,0.305798 -0.106335,0.556027 -0.210836,0.750288 -0.0973,0.195133 -0.211798,0.34824 -0.343155,0.458024 -0.132218,0.117052 -0.27198,0.195366 -0.417311,0.23701 -0.138043,0.04254 -0.265647,0.06492 -0.383868,0.06543 l -0.0029,0.02181 c 0.06292,0.02974 0.160353,0.08508 0.29081,0.167216 0.137732,0.08301 0.270287,0.206215 0.398408,0.369327 0.127238,0.170401 0.230814,0.382027 0.311166,0.635418 0.07946,0.260666 0.09697,0.576717 0.05235,0.948038 -0.0796,0.662562 -0.356063,1.153239 -0.830261,1.472949 -0.355642,0.239786 -0.820798,0.361631 -1.392975,0.363511 z m -0.357696,-1.148696 c 0.08461,0.0028 0.168272,7.14e-4 0.250096,-0.0044 0.170963,-0.009 0.323753,-0.04966 0.458025,-0.12214 0.141558,-0.07161 0.258384,-0.182978 0.350425,-0.334431 0.09117,-0.144147 0.150532,-0.339883 0.180301,-0.587434 0.04989,-0.415005 -0.02504,-0.741762 -0.225377,-0.980027 -0.201211,-0.231009 -0.519905,-0.372108 -0.956762,-0.424581 l -2.23923,-0.268999 -0.292264,2.435527 2.21742,0.26609 c 0.08737,0.01041 0.172785,0.01754 0.257366,0.02036 z"
     transform="matrix(0.35539757,0,0,-0.35539757,23.480139,17.239862)" />
</svg>
