<?xml version="1.0" encoding="UTF-8" standalone="no"?>
<!-- Created with Inkscape (http://www.inkscape.org/) -->

<svg
   width="234.69005"
   height="340"
   viewBox="0 0 62.095076 89.958333"
   version="1.1"
   id="svg1"
   xml:space="preserve"
   xmlns="http://www.w3.org/2000/svg"
   xmlns:svg="http://www.w3.org/2000/svg"><defs
     id="defs1" /><g
     id="layer1"
     transform="translate(-0.04100319)"><path
       style="fill:#35ffcb;stroke:none"
       d="m 0.04100619,4.4979167 2.45311301,16.4041703 5.636687,38.1 2.7581168,17.72708 4.7625,-0.52917 v 0.26459 l -4.7625,1.5875 c 0.862009,2.14271 7.507512,0.0866 9.525,0 v 0.26458 l -8.995833,2.11667 0.264583,1.5875 c 6.042653,-1.56336 13.852288,-1.84794 20.108329,-1.85209 l 0.52917,9.78959 c 6.33717,-1.13034 4.93022,-6.6882 5.55625,-11.64167 h 0.26459 l 1.05833,8.20208 3.93771,-2.21997 -0.12126,-3.86544 -0.66493,-7.67292 -3.68069,-40.48125 h -0.79375 v -1.05833 l -12.964582,0.98279 -4.489548,0.8011 -0.03185,2.44944 0.552645,6.35 8.731255,-0.79375 0.55285,9.525 1.03465,20.37292 -8.466672,0.52916 -5.129976,-26.19375 -4.395024,-22.225 -2.38125,-11.64166 14.552084,-1.32292 1.058333,11.64167 9.260415,-0.79375 C 35.627502,14.494417 35.534102,5.8800567 33.113922,-3.3333334e-6 25.425384,8.3666667e-4 16.592175,0.65112664 9.0472494,2.1721967 c -2.9594372,0.59663 -5.9516532,1.73335 -9.00624621,2.32572 M 49.782672,32.014587 c -3.06853,1.60978 -2.42145,7.34421 1.58342,6.23506 1.62729,-0.45068 1.79671,-4.99752 3.13029,-4.5561 1.50111,0.49686 -0.2094,3.24187 0.31338,4.40645 3.12313,-1.0879 2.65025,-7.11248 -1.05814,-6.55007 -2.01015,0.30486 -2.37889,5.02253 -3.64802,4.60653 -1.20066,-0.39356 0.0279,-3.09324 -0.32093,-4.14187 m -1.05833,8.73125 0.79375,1.85208 c -0.26031,1.13879 -0.68505,2.26199 -0.38136,3.43958 0.97936,3.79763 6.65961,3.7011 8.05183,0.26459 0.62263,-1.53687 -0.0345,-2.90743 -0.7913,-4.23334 5.05896,-0.8169 1.69703,4.03089 2.38125,6.08542 3.44764,-0.82204 3.6073,-6.29652 0.52814,-7.78602 -3.02541,-1.46351 -7.39086,0.31181 -10.58231,0.37769 m 3.70539,1.70244 c 2.94937,-0.80503 4.53571,3.45006 1.58219,4.26803 -2.95477,0.81833 -4.73359,-3.40787 -1.58219,-4.26803 m 6.08419,9.93922 v -1.85208 c -2.16505,2.4e-4 -5.96819,-0.20899 -7.63474,1.38335 -1.67598,1.60135 -0.52392,2.90904 -0.21803,4.70207 0.10766,0.63109 -0.30337,1.64185 0.33971,2.08562 1.00391,0.69279 6.60814,-0.13565 7.69333,-0.69452 0.69654,-0.35872 0.67499,-1.41378 -0.0304,-1.75961 -1.67028,-0.81882 -3.97513,0.99098 -5.67731,0.0555 -1.27211,-0.6991 -1.27363,-2.38223 -0.0133,-3.07946 1.41637,-0.78353 3.94307,-0.77231 5.54073,-0.84091 m -7.40833,9.26042 c 0.04,3.3783 6.29181,1.51122 8.73125,1.05833 -0.18114,-3.26966 -6.39228,-1.07769 -8.73125,-1.05833 m -2.84917,0.54816 c -1.36775,0.75008 -0.13773,2.81954 1.14714,2.03867 1.23182,-0.74863 0.16681,-2.75927 -1.14714,-2.03867 m 4.43667,9.77059 -4.7625,0.52917 c 0.12607,2.27558 1.6528,1.77343 3.43958,1.60729 3.17933,-0.2956 6.35784,-0.67786 9.525,-1.07813 v -1.85208 c -1.07919,7.1e-4 -2.10451,0.1065 -3.175,0.22069 -1.62437,0.17328 -6.44983,-1.13589 -3.14621,-3.08762 1.49694,-0.88438 4.07498,0.004 5.35741,-1.10815 0.49402,-0.42828 0.23366,-1.29251 0.17005,-1.84575 -4.01419,0.31679 -11.12572,0.90039 -7.40833,6.61458 m 6.87917,3.175 c -0.19092,2.50978 -3.01757,2.36462 -5.02709,2.38125 -0.14566,-1.26545 -0.61302,-1.5463 -1.85208,-1.5875 v 1.85208 l -2.38125,0.26459 v 1.85208 c 1.57065,0.006 2.29287,0.24453 3.175,1.5875 l 1.5875,-0.26458 -0.26458,-1.5875 c 3.66114,-0.28894 6.61411,-0.2196 6.61458,-4.49792 h -1.85208 m 0.61327,6.8906 c -1.34748,0.84728 0.0454,3.11239 1.41928,2.13116 1.31231,-0.93727 -0.0544,-2.9894 -1.41928,-2.13116 z"
       id="path1" /></g></svg>
